<svg xmlns="http://www.w3.org/2000/svg" viewBox="0 0 63.84 56.21"><defs><style>.cls-1{fill:#ff4883;}</style></defs><g id="Layer_2" data-name="Layer 2"><g id="Layer_1-2" data-name="Layer 1"><circle class="cls-1" cx="1.3" cy="1.3" r="1.3"/><circle class="cls-1" cx="18.8" cy="1.3" r="1.3"/><circle class="cls-1" cx="36.29" cy="1.3" r="1.3"/><circle class="cls-1" cx="53.79" cy="1.3" r="1.3"/><circle class="cls-1" cx="10.05" cy="1.3" r="1.3"/><circle class="cls-1" cx="27.55" cy="1.3" r="1.3"/><circle class="cls-1" cx="45.04" cy="1.3" r="1.3"/><circle class="cls-1" cx="62.54" cy="1.3" r="1.3"/><circle class="cls-1" cx="1.3" cy="12.02" r="1.3"/><circle class="cls-1" cx="18.8" cy="12.02" r="1.3"/><circle class="cls-1" cx="36.29" cy="12.02" r="1.3"/><circle class="cls-1" cx="53.79" cy="12.02" r="1.3"/><circle class="cls-1" cx="10.05" cy="12.02" r="1.3"/><circle class="cls-1" cx="27.55" cy="12.02" r="1.3"/><circle class="cls-1" cx="45.04" cy="12.02" r="1.3"/><circle class="cls-1" cx="62.54" cy="12.02" r="1.3"/><circle class="cls-1" cx="1.3" cy="22.75" r="1.3"/><circle class="cls-1" cx="18.8" cy="22.75" r="1.3"/><circle class="cls-1" cx="36.29" cy="22.75" r="1.3"/><circle class="cls-1" cx="53.79" cy="22.75" r="1.3"/><circle class="cls-1" cx="10.05" cy="22.75" r="1.3"/><circle class="cls-1" cx="27.55" cy="22.75" r="1.3"/><circle class="cls-1" cx="45.04" cy="22.75" r="1.3"/><circle class="cls-1" cx="62.54" cy="22.75" r="1.3"/><circle class="cls-1" cx="1.3" cy="33.47" r="1.3"/><circle class="cls-1" cx="18.8" cy="33.47" r="1.3"/><circle class="cls-1" cx="36.29" cy="33.47" r="1.3"/><circle class="cls-1" cx="53.79" cy="33.47" r="1.3"/><circle class="cls-1" cx="10.05" cy="33.47" r="1.3"/><circle class="cls-1" cx="27.55" cy="33.47" r="1.3"/><circle class="cls-1" cx="45.04" cy="33.47" r="1.3"/><circle class="cls-1" cx="62.54" cy="33.47" r="1.3"/><circle class="cls-1" cx="1.3" cy="44.19" r="1.3"/><circle class="cls-1" cx="18.8" cy="44.19" r="1.3"/><circle class="cls-1" cx="36.29" cy="44.19" r="1.3"/><circle class="cls-1" cx="53.79" cy="44.19" r="1.3"/><circle class="cls-1" cx="10.05" cy="44.19" r="1.3"/><circle class="cls-1" cx="27.55" cy="44.19" r="1.3"/><circle class="cls-1" cx="45.04" cy="44.19" r="1.3"/><circle class="cls-1" cx="62.54" cy="44.19" r="1.3"/><circle class="cls-1" cx="1.3" cy="54.91" r="1.3"/><circle class="cls-1" cx="18.8" cy="54.91" r="1.3"/><circle class="cls-1" cx="36.29" cy="54.91" r="1.3"/><circle class="cls-1" cx="53.79" cy="54.91" r="1.3"/><circle class="cls-1" cx="10.05" cy="54.91" r="1.3"/><circle class="cls-1" cx="27.55" cy="54.91" r="1.3"/><circle class="cls-1" cx="45.04" cy="54.91" r="1.3"/><circle class="cls-1" cx="62.54" cy="54.91" r="1.3"/></g></g></svg>